<svg width="84" height="248" viewBox="0 0 84 248" fill="none" xmlns="http://www.w3.org/2000/svg">
<g filter="url(#filter0_f_24_825)">
<rect x="-319.5" y="4.5" width="399" height="239" rx="19.5" stroke="black" stroke-opacity="0.1"/>
<path d="M-285.92 111.907L-286.224 115.091H-286.944L-287.264 111.907C-287.328 111.347 -286.928 111.091 -286.576 111.091C-286.24 111.091 -285.856 111.347 -285.92 111.907ZM-283.664 111.907L-283.968 115.091H-284.688L-285.008 111.907C-285.072 111.347 -284.672 111.091 -284.32 111.091C-283.984 111.091 -283.6 111.347 -283.664 111.907ZM-280.378 111.123V122.579H-281.53V111.123H-280.378ZM-276.904 111.907L-277.208 115.091H-277.928L-278.248 111.907C-278.312 111.347 -277.912 111.091 -277.56 111.091C-277.224 111.091 -276.84 111.347 -276.904 111.907ZM-273.916 122.579H-275.02V114.835H-274.06L-273.932 115.939C-273.548 115.123 -272.684 114.627 -271.596 114.627C-270.38 114.627 -269.468 115.267 -269.1 116.275C-268.748 115.267 -267.804 114.627 -266.556 114.627C-264.876 114.627 -263.772 115.715 -263.772 117.507V122.579H-264.844V117.731C-264.844 116.403 -265.58 115.619 -266.764 115.619C-268.06 115.619 -268.828 116.595 -268.828 117.795V122.579H-269.916V117.715C-269.916 116.403 -270.668 115.635 -271.836 115.635C-273.132 115.635 -273.916 116.595 -273.916 117.779V122.579ZM-256.154 122.579H-257.114V110.915H-256.01V116.339C-255.466 115.203 -254.41 114.627 -253.098 114.627C-250.842 114.627 -249.53 116.387 -249.53 118.723C-249.53 121.043 -250.874 122.771 -253.13 122.771C-254.426 122.771 -255.498 122.195 -256.042 120.995L-256.154 122.579ZM-255.994 118.691C-255.994 120.483 -255.002 121.763 -253.306 121.763C-251.626 121.763 -250.65 120.483 -250.65 118.691C-250.65 116.915 -251.626 115.619 -253.306 115.619C-255.002 115.619 -255.994 116.915 -255.994 118.691ZM-246.618 122.579H-247.722V110.915H-246.618V122.579ZM-244.814 118.707C-244.814 116.339 -243.15 114.627 -240.878 114.627C-238.606 114.627 -236.942 116.339 -236.942 118.707C-236.942 121.059 -238.606 122.771 -240.878 122.771C-243.15 122.771 -244.814 121.059 -244.814 118.707ZM-243.694 118.691C-243.694 120.515 -242.542 121.779 -240.878 121.779C-239.23 121.779 -238.062 120.515 -238.062 118.691C-238.062 116.899 -239.23 115.619 -240.878 115.619C-242.542 115.619 -243.694 116.899 -243.694 118.691ZM-233.888 122.579L-236.448 114.835H-235.312L-233.792 119.507C-233.616 120.019 -233.472 120.547 -233.312 121.171C-233.184 120.547 -232.928 119.763 -232.848 119.507L-231.312 114.835H-230.176L-228.656 119.507C-228.512 119.923 -228.32 120.595 -228.176 121.171C-228.016 120.531 -227.984 120.339 -227.712 119.507L-226.176 114.835H-225.024L-227.648 122.579H-228.72L-230.32 117.715C-230.512 117.139 -230.64 116.659 -230.736 116.195C-230.848 116.611 -230.976 117.075 -231.184 117.715L-232.784 122.579H-233.888ZM-222.541 122.579H-223.645V114.835H-222.685L-222.525 116.179C-222.013 115.187 -220.989 114.627 -219.869 114.627C-217.741 114.627 -216.861 115.891 -216.861 117.843V122.579H-217.965V118.083C-217.965 116.275 -218.781 115.635 -220.061 115.635C-221.645 115.635 -222.541 116.787 -222.541 118.531V122.579ZM-207.999 122.771C-209.647 122.771 -210.623 121.843 -210.623 120.483C-210.623 119.059 -209.535 118.163 -207.727 118.019L-205.167 117.811V117.555C-205.167 116.035 -206.079 115.555 -207.215 115.555C-208.559 115.555 -209.359 116.163 -209.359 117.203H-210.367C-210.367 115.635 -209.087 114.627 -207.183 114.627C-205.391 114.627 -204.079 115.523 -204.079 117.571V122.579H-205.007L-205.151 121.219C-205.631 122.195 -206.687 122.771 -207.999 122.771ZM-207.743 121.875C-206.111 121.875 -205.167 120.739 -205.167 119.059V118.643L-207.455 118.819C-208.911 118.947 -209.503 119.587 -209.503 120.451C-209.503 121.395 -208.799 121.875 -207.743 121.875ZM-200.466 122.579L-203.026 114.835H-201.89L-200.37 119.507C-200.194 120.019 -200.05 120.547 -199.89 121.171C-199.762 120.547 -199.506 119.763 -199.426 119.507L-197.89 114.835H-196.754L-195.234 119.507C-195.09 119.923 -194.898 120.595 -194.754 121.171C-194.594 120.531 -194.562 120.339 -194.29 119.507L-192.754 114.835H-191.602L-194.226 122.579H-195.298L-196.898 117.715C-197.09 117.139 -197.218 116.659 -197.314 116.195C-197.426 116.611 -197.554 117.075 -197.762 117.715L-199.362 122.579H-200.466ZM-188.343 122.771C-189.991 122.771 -190.967 121.843 -190.967 120.483C-190.967 119.059 -189.879 118.163 -188.071 118.019L-185.511 117.811V117.555C-185.511 116.035 -186.423 115.555 -187.559 115.555C-188.903 115.555 -189.703 116.163 -189.703 117.203H-190.711C-190.711 115.635 -189.431 114.627 -187.527 114.627C-185.735 114.627 -184.423 115.523 -184.423 117.571V122.579H-185.351L-185.495 121.219C-185.975 122.195 -187.031 122.771 -188.343 122.771ZM-188.087 121.875C-186.455 121.875 -185.511 120.739 -185.511 119.059V118.643L-187.799 118.819C-189.255 118.947 -189.847 119.587 -189.847 120.451C-189.847 121.395 -189.143 121.875 -188.087 121.875ZM-183.163 125.955V125.043H-182.315C-181.643 125.043 -180.971 124.995 -180.587 123.955L-180.251 123.043L-183.387 114.835H-182.219L-179.723 121.587L-177.275 114.835H-176.139L-179.691 124.355C-180.139 125.571 -180.891 126.067 -181.995 126.067C-182.459 126.067 -182.811 126.035 -183.163 125.955ZM-169.451 122.579H-170.41V110.915H-169.306V116.339C-168.762 115.203 -167.706 114.627 -166.394 114.627C-164.138 114.627 -162.826 116.387 -162.826 118.723C-162.826 121.043 -164.17 122.771 -166.426 122.771C-167.722 122.771 -168.794 122.195 -169.338 120.995L-169.451 122.579ZM-169.29 118.691C-169.29 120.483 -168.298 121.763 -166.602 121.763C-164.922 121.763 -163.946 120.483 -163.946 118.691C-163.946 116.915 -164.922 115.619 -166.602 115.619C-168.298 115.619 -169.29 116.915 -169.29 118.691ZM-162.101 125.955V125.043H-161.253C-160.581 125.043 -159.909 124.995 -159.525 123.955L-159.189 123.043L-162.325 114.835H-161.157L-158.661 121.587L-156.213 114.835H-155.077L-158.629 124.355C-159.077 125.571 -159.829 126.067 -160.933 126.067C-161.397 126.067 -161.749 126.035 -162.101 125.955ZM-147.572 122.579H-148.66V115.763H-150.212V114.835H-148.66V112.387H-147.572V114.835H-146.02V115.763H-147.572V122.579ZM-143.478 122.563H-144.582V110.915H-143.478V116.179C-142.982 115.251 -142.038 114.627 -140.742 114.627C-138.71 114.627 -137.798 115.891 -137.798 117.843V122.579H-138.902V118.083C-138.902 116.275 -139.75 115.635 -140.95 115.635C-142.614 115.635 -143.478 116.867 -143.478 118.355V122.563ZM-132.35 122.771C-134.622 122.771 -136.142 121.139 -136.142 118.707C-136.142 116.291 -134.638 114.627 -132.43 114.627C-130.334 114.627 -128.91 116.115 -128.91 118.307V118.851H-135.07C-134.99 120.739 -133.998 121.827 -132.334 121.827C-131.07 121.827 -130.254 121.283 -129.966 120.259H-128.91C-129.326 121.891 -130.526 122.771 -132.35 122.771ZM-132.43 115.571C-133.886 115.571 -134.846 116.531 -135.038 118.051H-130.014C-130.014 116.563 -130.974 115.571 -132.43 115.571ZM-123.251 118.675C-123.251 116.339 -121.907 114.627 -119.667 114.627C-118.371 114.627 -117.299 115.203 -116.739 116.403L-116.627 114.835H-115.667V125.955H-116.771V121.091C-117.315 122.211 -118.355 122.771 -119.667 122.771C-121.955 122.771 -123.251 121.011 -123.251 118.675ZM-122.131 118.707C-122.131 120.483 -121.155 121.779 -119.475 121.779C-117.779 121.779 -116.787 120.483 -116.787 118.707C-116.787 116.915 -117.779 115.635 -119.475 115.635C-121.155 115.635 -122.131 116.915 -122.131 118.707ZM-107.924 114.835H-106.82V122.579H-107.78L-107.924 121.267C-108.356 122.163 -109.428 122.771 -110.644 122.771C-112.468 122.771 -113.46 121.523 -113.46 119.635V114.819H-112.34V119.283C-112.34 121.123 -111.524 121.779 -110.292 121.779C-108.804 121.779 -107.924 120.787 -107.924 118.947V114.835ZM-102.296 122.771C-103.944 122.771 -104.92 121.843 -104.92 120.483C-104.92 119.059 -103.832 118.163 -102.024 118.019L-99.4639 117.811V117.555C-99.4639 116.035 -100.376 115.555 -101.512 115.555C-102.856 115.555 -103.656 116.163 -103.656 117.203H-104.664C-104.664 115.635 -103.384 114.627 -101.48 114.627C-99.6879 114.627 -98.3759 115.523 -98.3759 117.571V122.579H-99.3039L-99.4479 121.219C-99.9279 122.195 -100.984 122.771 -102.296 122.771ZM-102.04 121.875C-100.408 121.875 -99.4639 120.739 -99.4639 119.059V118.643L-101.752 118.819C-103.208 118.947 -103.8 119.587 -103.8 120.451C-103.8 121.395 -103.096 121.875 -102.04 121.875ZM-95.0085 122.579H-96.1125V110.915H-95.0085V122.579ZM-92.1165 112.707C-92.5645 112.707 -92.9325 112.339 -92.9325 111.891C-92.9325 111.443 -92.5645 111.059 -92.1165 111.059C-91.6685 111.059 -91.2845 111.443 -91.2845 111.891C-91.2845 112.339 -91.6685 112.707 -92.1165 112.707ZM-92.6605 122.579V114.835H-91.5565V122.579H-92.6605ZM-87.4782 122.579H-88.5662V115.763H-90.1182V114.835H-88.5662V112.387H-87.4782V114.835H-85.9262V115.763H-87.4782V122.579ZM-85.2726 125.955V125.043H-84.4246C-83.7526 125.043 -83.0806 124.995 -82.6966 123.955L-82.3606 123.043L-85.4966 114.835H-84.3286L-81.8326 121.587L-79.3846 114.835H-78.2486L-81.8006 124.355C-82.2486 125.571 -83.0006 126.067 -84.1046 126.067C-84.5686 126.067 -84.9206 126.035 -85.2726 125.955ZM-70.2959 122.771C-71.9439 122.771 -72.9199 121.843 -72.9199 120.483C-72.9199 119.059 -71.8319 118.163 -70.0239 118.019L-67.4639 117.811V117.555C-67.4639 116.035 -68.3759 115.555 -69.5119 115.555C-70.8559 115.555 -71.6559 116.163 -71.6559 117.203H-72.6639C-72.6639 115.635 -71.3839 114.627 -69.4799 114.627C-67.6879 114.627 -66.3759 115.523 -66.3759 117.571V122.579H-67.3039L-67.4479 121.219C-67.9279 122.195 -68.9839 122.771 -70.2959 122.771ZM-70.0399 121.875C-68.4079 121.875 -67.4639 120.739 -67.4639 119.059V118.643L-69.7519 118.819C-71.2079 118.947 -71.7999 119.587 -71.7999 120.451C-71.7999 121.395 -71.0959 121.875 -70.0399 121.875ZM-63.0565 122.579H-64.1605V114.835H-63.2005L-63.0405 116.179C-62.5285 115.187 -61.5045 114.627 -60.3845 114.627C-58.2565 114.627 -57.3765 115.891 -57.3765 117.843V122.579H-58.4805V118.083C-58.4805 116.275 -59.2965 115.635 -60.5765 115.635C-62.1605 115.635 -63.0565 116.787 -63.0565 118.531V122.579ZM-52.1361 122.771C-54.3921 122.771 -55.7201 121.043 -55.7201 118.723C-55.7201 116.387 -54.3921 114.627 -52.0881 114.627C-50.8081 114.627 -49.7841 115.187 -49.2401 116.307V110.915H-48.1361V122.579H-49.0961L-49.2081 120.995C-49.7521 122.195 -50.8401 122.771 -52.1361 122.771ZM-51.9441 121.763C-50.2481 121.763 -49.2561 120.483 -49.2561 118.691C-49.2561 116.915 -50.2481 115.619 -51.9441 115.619C-53.6241 115.619 -54.6001 116.915 -54.6001 118.691C-54.6001 120.483 -53.6241 121.763 -51.9441 121.763ZM-42.0509 120.403H-40.9949C-40.9949 121.299 -40.3229 121.859 -39.2349 121.859C-38.0349 121.859 -37.3309 121.347 -37.3309 120.515C-37.3309 119.875 -37.6509 119.507 -38.5629 119.283L-39.8909 118.947C-41.2349 118.611 -41.8909 117.907 -41.8909 116.851C-41.8909 115.491 -40.7549 114.627 -39.0909 114.627C-37.4589 114.627 -36.4029 115.523 -36.3549 116.963H-37.4269C-37.4589 116.067 -38.0829 115.539 -39.1229 115.539C-40.2109 115.539 -40.8189 116.003 -40.8189 116.835C-40.8189 117.427 -40.4029 117.843 -39.5549 118.051L-38.2269 118.387C-36.8829 118.723 -36.2749 119.347 -36.2749 120.467C-36.2749 121.859 -37.4589 122.771 -39.2189 122.771C-40.9629 122.771 -42.0509 121.843 -42.0509 120.403ZM-32.6814 122.579H-33.7694V115.763H-35.3214V114.835H-33.7694V112.387H-32.6814V114.835H-31.1294V115.763H-32.6814V122.579ZM-30.4757 125.955V125.043H-29.6277C-28.9557 125.043 -28.2837 124.995 -27.8997 123.955L-27.5637 123.043L-30.6997 114.835H-29.5317L-27.0357 121.587L-24.5877 114.835H-23.4517L-27.0037 124.355C-27.4517 125.571 -28.2037 126.067 -29.3077 126.067C-29.7717 126.067 -30.1237 126.035 -30.4757 125.955ZM-21.0085 122.579H-22.1125V110.915H-21.0085V122.579ZM-15.4125 122.771C-17.6845 122.771 -19.2045 121.139 -19.2045 118.707C-19.2045 116.291 -17.7005 114.627 -15.4925 114.627C-13.3965 114.627 -11.9725 116.115 -11.9725 118.307V118.851H-18.1325C-18.0525 120.739 -17.0605 121.827 -15.3965 121.827C-14.1325 121.827 -13.3165 121.283 -13.0285 120.259H-11.9725C-12.3885 121.891 -13.5885 122.771 -15.4125 122.771ZM-15.4925 115.571C-16.9485 115.571 -17.9085 116.531 -18.1005 118.051H-13.0765C-13.0765 116.563 -14.0365 115.571 -15.4925 115.571ZM-6.31387 118.707C-6.31387 116.339 -4.64987 114.627 -2.37787 114.627C-0.105875 114.627 1.55813 116.339 1.55813 118.707C1.55813 121.059 -0.105875 122.771 -2.37787 122.771C-4.64987 122.771 -6.31387 121.059 -6.31387 118.707ZM-5.19387 118.691C-5.19387 120.515 -4.04187 121.779 -2.37787 121.779C-0.729875 121.779 0.438125 120.515 0.438125 118.691C0.438125 116.899 -0.729875 115.619 -2.37787 115.619C-4.04187 115.619 -5.19387 116.899 -5.19387 118.691ZM2.39738 114.835H3.58138V113.331C3.58138 111.587 4.54138 110.915 5.72538 110.915C5.99738 110.915 6.31738 110.931 6.57338 110.979V111.923H5.91738C4.94138 111.923 4.68538 112.419 4.68538 113.331V114.835H6.50938V115.763H4.68538V122.579H3.58138V115.763H2.39738V114.835ZM14.2249 122.579H13.1369V115.763H11.5849V114.835H13.1369V112.387H14.2249V114.835H15.7769V115.763H14.2249V122.579ZM18.3185 122.563H17.2145V110.915H18.3185V116.179C18.8145 115.251 19.7585 114.627 21.0545 114.627C23.0865 114.627 23.9985 115.891 23.9985 117.843V122.579H22.8945V118.083C22.8945 116.275 22.0465 115.635 20.8465 115.635C19.1825 115.635 18.3185 116.867 18.3185 118.355V122.563ZM29.4469 122.771C27.1749 122.771 25.6549 121.139 25.6549 118.707C25.6549 116.291 27.1589 114.627 29.3669 114.627C31.4629 114.627 32.8869 116.115 32.8869 118.307V118.851H26.7269C26.8069 120.739 27.7989 121.827 29.4629 121.827C30.7269 121.827 31.5429 121.283 31.8309 120.259H32.8869C32.4709 121.891 31.2709 122.771 29.4469 122.771ZM29.3669 115.571C27.9109 115.571 26.9509 116.531 26.7589 118.051H31.7829C31.7829 116.563 30.8229 115.571 29.3669 115.571ZM-287.392 140.723C-287.392 138.291 -285.904 136.627 -283.648 136.627C-281.856 136.627 -280.544 137.667 -280.24 139.267H-281.344C-281.632 138.195 -282.56 137.603 -283.632 137.603C-285.2 137.603 -286.304 138.803 -286.304 140.707C-286.304 142.547 -285.28 143.779 -283.712 143.779C-282.56 143.779 -281.632 143.139 -281.328 142.147H-280.208C-280.576 143.731 -281.952 144.771 -283.712 144.771C-285.904 144.771 -287.392 143.155 -287.392 140.723ZM-277.383 144.579H-278.487V132.915H-277.383V144.579ZM-275.579 140.707C-275.579 138.339 -273.915 136.627 -271.643 136.627C-269.371 136.627 -267.707 138.339 -267.707 140.707C-267.707 143.059 -269.371 144.771 -271.643 144.771C-273.915 144.771 -275.579 143.059 -275.579 140.707ZM-274.459 140.691C-274.459 142.515 -273.307 143.779 -271.643 143.779C-269.995 143.779 -268.827 142.515 -268.827 140.691C-268.827 138.899 -269.995 137.619 -271.643 137.619C-273.307 137.619 -274.459 138.899 -274.459 140.691ZM-264.244 144.579H-265.332V137.763H-266.884V136.835H-265.332V134.387H-264.244V136.835H-262.692V137.763H-264.244V144.579ZM-260.15 144.563H-261.254V132.915H-260.15V138.179C-259.654 137.251 -258.71 136.627 -257.414 136.627C-255.382 136.627 -254.47 137.891 -254.47 139.843V144.579H-255.574V140.083C-255.574 138.275 -256.422 137.635 -257.622 137.635C-259.286 137.635 -260.15 138.867 -260.15 140.355V144.563ZM-249.022 144.771C-251.294 144.771 -252.814 143.139 -252.814 140.707C-252.814 138.291 -251.31 136.627 -249.102 136.627C-247.006 136.627 -245.582 138.115 -245.582 140.307V140.851H-251.742C-251.662 142.739 -250.67 143.827 -249.006 143.827C-247.742 143.827 -246.926 143.283 -246.638 142.259H-245.582C-245.998 143.891 -247.198 144.771 -249.022 144.771ZM-249.102 137.571C-250.558 137.571 -251.518 138.531 -251.71 140.051H-246.686C-246.686 138.563 -247.646 137.571 -249.102 137.571ZM-244.473 142.403H-243.417C-243.417 143.299 -242.745 143.859 -241.657 143.859C-240.457 143.859 -239.753 143.347 -239.753 142.515C-239.753 141.875 -240.073 141.507 -240.985 141.283L-242.313 140.947C-243.657 140.611 -244.313 139.907 -244.313 138.851C-244.313 137.491 -243.177 136.627 -241.513 136.627C-239.881 136.627 -238.825 137.523 -238.777 138.963H-239.849C-239.881 138.067 -240.505 137.539 -241.545 137.539C-242.633 137.539 -243.241 138.003 -243.241 138.835C-243.241 139.427 -242.825 139.843 -241.977 140.051L-240.649 140.387C-239.305 140.723 -238.697 141.347 -238.697 142.467C-238.697 143.859 -239.881 144.771 -241.641 144.771C-243.385 144.771 -244.473 143.843 -244.473 142.403ZM-231.05 133.123V144.579H-232.202V133.123H-231.05ZM-220.019 136.739V137.731H-220.627C-222.051 137.731 -222.963 138.691 -222.963 140.163V144.579H-224.067V136.835H-223.027L-222.947 138.035C-222.643 137.203 -221.827 136.659 -220.739 136.659C-220.499 136.659 -220.291 136.675 -220.019 136.739ZM-215.6 144.771C-217.872 144.771 -219.392 143.139 -219.392 140.707C-219.392 138.291 -217.888 136.627 -215.68 136.627C-213.584 136.627 -212.16 138.115 -212.16 140.307V140.851H-218.32C-218.24 142.739 -217.248 143.827 -215.584 143.827C-214.32 143.827 -213.504 143.283 -213.216 142.259H-212.16C-212.576 143.891 -213.776 144.771 -215.6 144.771ZM-215.68 137.571C-217.136 137.571 -218.096 138.531 -218.288 140.051H-213.264C-213.264 138.563 -214.224 137.571 -215.68 137.571ZM-210.939 140.723C-210.939 138.291 -209.451 136.627 -207.195 136.627C-205.403 136.627 -204.091 137.667 -203.787 139.267H-204.891C-205.179 138.195 -206.107 137.603 -207.179 137.603C-208.747 137.603 -209.851 138.803 -209.851 140.707C-209.851 142.547 -208.827 143.779 -207.259 143.779C-206.107 143.779 -205.179 143.139 -204.875 142.147H-203.755C-204.123 143.731 -205.499 144.771 -207.259 144.771C-209.451 144.771 -210.939 143.155 -210.939 140.723ZM-198.834 144.771C-201.106 144.771 -202.626 143.139 -202.626 140.707C-202.626 138.291 -201.122 136.627 -198.914 136.627C-196.818 136.627 -195.394 138.115 -195.394 140.307V140.851H-201.554C-201.474 142.739 -200.482 143.827 -198.818 143.827C-197.554 143.827 -196.738 143.283 -196.45 142.259H-195.394C-195.81 143.891 -197.01 144.771 -198.834 144.771ZM-198.914 137.571C-200.37 137.571 -201.33 138.531 -201.522 140.051H-196.498C-196.498 138.563 -197.458 137.571 -198.914 137.571ZM-193.085 134.707C-193.533 134.707 -193.901 134.339 -193.901 133.891C-193.901 133.443 -193.533 133.059 -193.085 133.059C-192.637 133.059 -192.253 133.443 -192.253 133.891C-192.253 134.339 -192.637 134.707 -193.085 134.707ZM-193.629 144.579V136.835H-192.525V144.579H-193.629ZM-188.063 144.579L-191.231 136.835H-190.047L-188.047 141.827C-187.839 142.387 -187.631 142.915 -187.487 143.427C-187.343 142.899 -187.135 142.387 -186.911 141.827L-184.879 136.835H-183.743L-186.959 144.579H-188.063ZM-179.537 144.771C-181.809 144.771 -183.329 143.139 -183.329 140.707C-183.329 138.291 -181.826 136.627 -179.617 136.627C-177.521 136.627 -176.097 138.115 -176.097 140.307V140.851H-182.257C-182.177 142.739 -181.185 143.827 -179.521 143.827C-178.257 143.827 -177.441 143.283 -177.153 142.259H-176.097C-176.513 143.891 -177.713 144.771 -179.537 144.771ZM-179.617 137.571C-181.073 137.571 -182.033 138.531 -182.225 140.051H-177.201C-177.201 138.563 -178.161 137.571 -179.617 137.571ZM-171.292 144.771C-173.548 144.771 -174.876 143.043 -174.876 140.723C-174.876 138.387 -173.548 136.627 -171.244 136.627C-169.964 136.627 -168.94 137.187 -168.396 138.307V132.915H-167.292V144.579H-168.252L-168.364 142.995C-168.908 144.195 -169.996 144.771 -171.292 144.771ZM-171.1 143.763C-169.404 143.763 -168.412 142.483 -168.412 140.691C-168.412 138.915 -169.404 137.619 -171.1 137.619C-172.78 137.619 -173.756 138.915 -173.756 140.691C-173.756 142.483 -172.78 143.763 -171.1 143.763ZM-161.415 136.835H-160.231V135.331C-160.231 133.587 -159.271 132.915 -158.087 132.915C-157.815 132.915 -157.495 132.931 -157.239 132.979V133.923H-157.895C-158.871 133.923 -159.127 134.419 -159.127 135.331V136.835H-157.303V137.763H-159.127V144.579H-160.231V137.763H-161.415V136.835ZM-151.753 136.739V137.731H-152.361C-153.785 137.731 -154.697 138.691 -154.697 140.163V144.579H-155.801V136.835H-154.761L-154.681 138.035C-154.377 137.203 -153.561 136.659 -152.473 136.659C-152.233 136.659 -152.025 136.675 -151.753 136.739ZM-151.126 140.707C-151.126 138.339 -149.462 136.627 -147.19 136.627C-144.918 136.627 -143.254 138.339 -143.254 140.707C-143.254 143.059 -144.918 144.771 -147.19 144.771C-149.462 144.771 -151.126 143.059 -151.126 140.707ZM-150.006 140.691C-150.006 142.515 -148.854 143.779 -147.19 143.779C-145.542 143.779 -144.374 142.515 -144.374 140.691C-144.374 138.899 -145.542 137.619 -147.19 137.619C-148.854 137.619 -150.006 138.899 -150.006 140.691ZM-140.385 144.579H-141.489V136.835H-140.529L-140.401 137.939C-140.017 137.123 -139.153 136.627 -138.065 136.627C-136.849 136.627 -135.937 137.267 -135.569 138.275C-135.217 137.267 -134.273 136.627 -133.025 136.627C-131.345 136.627 -130.241 137.715 -130.241 139.507V144.579H-131.313V139.731C-131.313 138.403 -132.049 137.619 -133.233 137.619C-134.529 137.619 -135.297 138.595 -135.297 139.795V144.579H-136.385V139.715C-136.385 138.403 -137.137 137.635 -138.305 137.635C-139.601 137.635 -140.385 138.595 -140.385 139.779V144.579ZM-124.03 136.099C-124.03 134.179 -122.494 132.915 -120.19 132.915C-118.126 132.915 -116.766 134.067 -116.59 135.987H-117.758C-117.886 134.691 -118.766 133.955 -120.206 133.955C-121.822 133.955 -122.878 134.787 -122.878 136.083C-122.878 137.091 -122.286 137.731 -121.086 138.035L-119.118 138.515C-117.326 138.947 -116.398 139.971 -116.398 141.523C-116.398 143.507 -117.934 144.771 -120.302 144.771C-122.526 144.771 -124.03 143.603 -124.174 141.731H-122.99C-122.926 142.931 -121.87 143.715 -120.302 143.715C-118.622 143.715 -117.55 142.899 -117.55 141.587C-117.55 140.563 -118.126 139.891 -119.358 139.603L-121.294 139.123C-123.086 138.691 -124.03 137.667 -124.03 136.099ZM-113.463 144.563H-114.567V132.915H-113.463V138.179C-112.967 137.251 -112.023 136.627 -110.727 136.627C-108.695 136.627 -107.783 137.891 -107.783 139.843V144.579H-108.887V140.083C-108.887 138.275 -109.735 137.635 -110.935 137.635C-112.599 137.635 -113.463 138.867 -113.463 140.355V144.563ZM-106.126 140.707C-106.126 138.339 -104.462 136.627 -102.19 136.627C-99.9184 136.627 -98.2544 138.339 -98.2544 140.707C-98.2544 143.059 -99.9184 144.771 -102.19 144.771C-104.462 144.771 -106.126 143.059 -106.126 140.707ZM-105.006 140.691C-105.006 142.515 -103.854 143.779 -102.19 143.779C-100.542 143.779 -99.3744 142.515 -99.3744 140.691C-99.3744 138.899 -100.542 137.619 -102.19 137.619C-103.854 137.619 -105.006 138.899 -105.006 140.691ZM-96.4886 147.955V136.835H-95.5286L-95.4166 138.403C-94.8726 137.203 -93.7846 136.627 -92.4886 136.627C-90.2486 136.627 -88.9046 138.339 -88.9046 140.675C-88.9046 143.011 -90.2006 144.771 -92.4886 144.771C-93.8006 144.771 -94.8406 144.211 -95.3846 143.091V147.955H-96.4886ZM-95.3686 140.707C-95.3686 142.483 -94.3766 143.779 -92.6806 143.779C-91.0006 143.779 -90.0246 142.483 -90.0246 140.707C-90.0246 138.915 -91.0006 137.635 -92.6806 137.635C-94.3766 137.635 -95.3686 138.915 -95.3686 140.707ZM-86.6852 144.755C-87.2292 144.755 -87.6932 144.307 -87.6932 143.779C-87.6932 143.235 -87.2292 142.771 -86.6852 142.771C-86.1412 142.771 -85.6772 143.235 -85.6772 143.779C-85.6772 144.307 -86.1412 144.755 -86.6852 144.755ZM-84.4701 140.723C-84.4701 138.291 -82.9821 136.627 -80.7261 136.627C-78.9341 136.627 -77.6221 137.667 -77.3181 139.267H-78.4221C-78.7101 138.195 -79.6381 137.603 -80.7101 137.603C-82.2781 137.603 -83.3821 138.803 -83.3821 140.707C-83.3821 142.547 -82.3581 143.779 -80.7901 143.779C-79.6381 143.779 -78.7101 143.139 -78.4061 142.147H-77.2861C-77.6541 143.731 -79.0301 144.771 -80.7901 144.771C-82.9821 144.771 -84.4701 143.155 -84.4701 140.723ZM-76.1576 140.707C-76.1576 138.339 -74.4936 136.627 -72.2216 136.627C-69.9496 136.627 -68.2856 138.339 -68.2856 140.707C-68.2856 143.059 -69.9496 144.771 -72.2216 144.771C-74.4936 144.771 -76.1576 143.059 -76.1576 140.707ZM-75.0376 140.691C-75.0376 142.515 -73.8856 143.779 -72.2216 143.779C-70.5736 143.779 -69.4056 142.515 -69.4056 140.691C-69.4056 138.899 -70.5736 137.619 -72.2216 137.619C-73.8856 137.619 -75.0376 138.899 -75.0376 140.691ZM-66.0602 144.755C-66.6042 144.755 -67.0682 144.307 -67.0682 143.779C-67.0682 143.235 -66.6042 142.771 -66.0602 142.771C-65.5162 142.771 -65.0522 143.235 -65.0522 143.779C-65.0522 144.307 -65.5162 144.755 -66.0602 144.755ZM-52.2992 139.539H-56.9872V144.579H-58.1392V133.123H-51.3872V134.179H-56.9872V138.499H-52.2992V139.539ZM-46.1281 136.739V137.731H-46.7361C-48.1601 137.731 -49.0721 138.691 -49.0721 140.163V144.579H-50.1761V136.835H-49.1361L-49.0561 138.035C-48.7521 137.203 -47.9361 136.659 -46.8481 136.659C-46.6081 136.659 -46.4001 136.675 -46.1281 136.739ZM-45.5014 140.707C-45.5014 138.339 -43.8374 136.627 -41.5654 136.627C-39.2934 136.627 -37.6294 138.339 -37.6294 140.707C-37.6294 143.059 -39.2934 144.771 -41.5654 144.771C-43.8374 144.771 -45.5014 143.059 -45.5014 140.707ZM-44.3814 140.691C-44.3814 142.515 -43.2294 143.779 -41.5654 143.779C-39.9174 143.779 -38.7494 142.515 -38.7494 140.691C-38.7494 138.899 -39.9174 137.619 -41.5654 137.619C-43.2294 137.619 -44.3814 138.899 -44.3814 140.691ZM-34.7596 144.579H-35.8636V136.835H-34.9036L-34.7756 137.939C-34.3916 137.123 -33.5276 136.627 -32.4396 136.627C-31.2236 136.627 -30.3116 137.267 -29.9436 138.275C-29.5916 137.267 -28.6476 136.627 -27.3996 136.627C-25.7196 136.627 -24.6156 137.715 -24.6156 139.507V144.579H-25.6876V139.731C-25.6876 138.403 -26.4236 137.619 -27.6076 137.619C-28.9036 137.619 -29.6716 138.595 -29.6716 139.795V144.579H-30.7596V139.715C-30.7596 138.403 -31.5116 137.635 -32.6796 137.635C-33.9756 137.635 -34.7596 138.595 -34.7596 139.779V144.579ZM-18.5014 140.723C-18.5014 138.291 -17.0134 136.627 -14.7574 136.627C-12.9654 136.627 -11.6534 137.667 -11.3494 139.267H-12.4534C-12.7414 138.195 -13.6694 137.603 -14.7414 137.603C-16.3094 137.603 -17.4134 138.803 -17.4134 140.707C-17.4134 142.547 -16.3894 143.779 -14.8214 143.779C-13.6694 143.779 -12.7414 143.139 -12.4374 142.147H-11.3174C-11.6854 143.731 -13.0614 144.771 -14.8214 144.771C-17.0134 144.771 -18.5014 143.155 -18.5014 140.723ZM-7.42087 144.771C-9.06887 144.771 -10.0449 143.843 -10.0449 142.483C-10.0449 141.059 -8.95687 140.163 -7.14887 140.019L-4.58887 139.811V139.555C-4.58887 138.035 -5.50087 137.555 -6.63687 137.555C-7.98087 137.555 -8.78087 138.163 -8.78087 139.203H-9.78887C-9.78887 137.635 -8.50887 136.627 -6.60487 136.627C-4.81287 136.627 -3.50087 137.523 -3.50087 139.571V144.579H-4.42887L-4.57287 143.219C-5.05287 144.195 -6.10887 144.771 -7.42087 144.771ZM-7.16487 143.875C-5.53287 143.875 -4.58887 142.739 -4.58887 141.059V140.643L-6.87687 140.819C-8.33287 140.947 -8.92487 141.587 -8.92487 142.451C-8.92487 143.395 -8.22087 143.875 -7.16487 143.875ZM-1.9415 142.403H-0.8855C-0.8855 143.299 -0.2135 143.859 0.8745 143.859C2.0745 143.859 2.7785 143.347 2.7785 142.515C2.7785 141.875 2.4585 141.507 1.5465 141.283L0.2185 140.947C-1.1255 140.611 -1.7815 139.907 -1.7815 138.851C-1.7815 137.491 -0.6455 136.627 1.0185 136.627C2.6505 136.627 3.7065 137.523 3.7545 138.963H2.6825C2.6505 138.067 2.0265 137.539 0.9865 137.539C-0.1015 137.539 -0.7095 138.003 -0.7095 138.835C-0.7095 139.427 -0.2935 139.843 0.5545 140.051L1.8825 140.387C3.2265 140.723 3.8345 141.347 3.8345 142.467C3.8345 143.859 2.6505 144.771 0.8905 144.771C-0.8535 144.771 -1.9415 143.843 -1.9415 142.403ZM11.092 136.835H12.196V144.579H11.236L11.092 143.267C10.66 144.163 9.588 144.771 8.372 144.771C6.548 144.771 5.556 143.523 5.556 141.635V136.819H6.676V141.283C6.676 143.123 7.492 143.779 8.724 143.779C10.212 143.779 11.092 142.787 11.092 140.947V136.835ZM16.7198 144.771C15.0718 144.771 14.0958 143.843 14.0958 142.483C14.0958 141.059 15.1838 140.163 16.9918 140.019L19.5518 139.811V139.555C19.5518 138.035 18.6398 137.555 17.5038 137.555C16.1598 137.555 15.3598 138.163 15.3598 139.203H14.3518C14.3518 137.635 15.6318 136.627 17.5358 136.627C19.3278 136.627 20.6398 137.523 20.6398 139.571V144.579H19.7118L19.5678 143.219C19.0878 144.195 18.0318 144.771 16.7198 144.771ZM16.9758 143.875C18.6078 143.875 19.5518 142.739 19.5518 141.059V140.643L17.2638 140.819C15.8078 140.947 15.2158 141.587 15.2158 142.451C15.2158 143.395 15.9198 143.875 16.9758 143.875ZM24.0071 144.579H22.9031V132.915H24.0071V144.579ZM-285.216 166.579L-287.776 158.835H-286.64L-285.12 163.507C-284.944 164.019 -284.8 164.547 -284.64 165.171C-284.512 164.547 -284.256 163.763 -284.176 163.507L-282.64 158.835H-281.504L-279.984 163.507C-279.84 163.923 -279.648 164.595 -279.504 165.171C-279.344 164.531 -279.312 164.339 -279.04 163.507L-277.504 158.835H-276.352L-278.976 166.579H-280.048L-281.648 161.715C-281.84 161.139 -281.968 160.659 -282.064 160.195C-282.176 160.611 -282.304 161.075 -282.512 161.715L-284.112 166.579H-285.216ZM-272.069 166.771C-274.341 166.771 -275.861 165.139 -275.861 162.707C-275.861 160.291 -274.357 158.627 -272.149 158.627C-270.053 158.627 -268.629 160.115 -268.629 162.307V162.851H-274.789C-274.709 164.739 -273.717 165.827 -272.053 165.827C-270.789 165.827 -269.973 165.283 -269.685 164.259H-268.629C-269.045 165.891 -270.245 166.771 -272.069 166.771ZM-272.149 159.571C-273.605 159.571 -274.565 160.531 -274.757 162.051H-269.733C-269.733 160.563 -270.693 159.571 -272.149 159.571ZM-264.718 166.771C-266.366 166.771 -267.342 165.843 -267.342 164.483C-267.342 163.059 -266.254 162.163 -264.446 162.019L-261.886 161.811V161.555C-261.886 160.035 -262.798 159.555 -263.934 159.555C-265.278 159.555 -266.078 160.163 -266.078 161.203H-267.086C-267.086 159.635 -265.806 158.627 -263.902 158.627C-262.11 158.627 -260.798 159.523 -260.798 161.571V166.579H-261.726L-261.87 165.219C-262.35 166.195 -263.406 166.771 -264.718 166.771ZM-264.462 165.875C-262.83 165.875 -261.886 164.739 -261.886 163.059V162.643L-264.174 162.819C-265.63 162.947 -266.222 163.587 -266.222 164.451C-266.222 165.395 -265.518 165.875 -264.462 165.875ZM-254.534 158.739V159.731H-255.142C-256.566 159.731 -257.478 160.691 -257.478 162.163V166.579H-258.582V158.835H-257.542L-257.462 160.035C-257.158 159.203 -256.342 158.659 -255.254 158.659C-255.014 158.659 -254.806 158.675 -254.534 158.739ZM-246.853 166.579H-247.941V159.763H-249.493V158.835H-247.941V156.387H-246.853V158.835H-245.301V159.763H-246.853V166.579ZM-244.486 162.707C-244.486 160.339 -242.822 158.627 -240.55 158.627C-238.278 158.627 -236.614 160.339 -236.614 162.707C-236.614 165.059 -238.278 166.771 -240.55 166.771C-242.822 166.771 -244.486 165.059 -244.486 162.707ZM-243.366 162.691C-243.366 164.515 -242.214 165.779 -240.55 165.779C-238.902 165.779 -237.734 164.515 -237.734 162.691C-237.734 160.899 -238.902 159.619 -240.55 159.619C-242.214 159.619 -243.366 160.899 -243.366 162.691ZM-227.162 166.771C-229.434 166.771 -230.954 165.139 -230.954 162.707C-230.954 160.291 -229.451 158.627 -227.242 158.627C-225.146 158.627 -223.722 160.115 -223.722 162.307V162.851H-229.882C-229.802 164.739 -228.81 165.827 -227.146 165.827C-225.882 165.827 -225.066 165.283 -224.778 164.259H-223.722C-224.138 165.891 -225.338 166.771 -227.162 166.771ZM-227.242 159.571C-228.698 159.571 -229.658 160.531 -229.85 162.051H-224.826C-224.826 160.563 -225.786 159.571 -227.242 159.571ZM-220.805 166.579H-221.909V154.915H-220.805V166.579ZM-215.209 166.771C-217.481 166.771 -219.001 165.139 -219.001 162.707C-219.001 160.291 -217.497 158.627 -215.289 158.627C-213.193 158.627 -211.769 160.115 -211.769 162.307V162.851H-217.929C-217.849 164.739 -216.857 165.827 -215.193 165.827C-213.929 165.827 -213.113 165.283 -212.825 164.259H-211.769C-212.185 165.891 -213.385 166.771 -215.209 166.771ZM-215.289 159.571C-216.745 159.571 -217.705 160.531 -217.897 162.051H-212.873C-212.873 160.563 -213.833 159.571 -215.289 159.571ZM-210.532 162.483C-210.532 160.371 -209.172 158.627 -206.9 158.627C-205.556 158.627 -204.532 159.251 -204.036 160.387L-203.924 158.835H-202.964V166.339C-202.964 168.643 -204.436 170.147 -206.708 170.147C-208.692 170.147 -210.084 169.027 -210.388 167.155H-209.284C-209.044 168.403 -208.084 169.139 -206.692 169.139C-205.108 169.139 -204.052 168.067 -204.052 166.451V164.611C-204.58 165.699 -205.652 166.339 -206.98 166.339C-209.188 166.339 -210.532 164.595 -210.532 162.483ZM-209.428 162.467C-209.428 164.051 -208.452 165.347 -206.82 165.347C-205.14 165.347 -204.148 164.131 -204.148 162.467C-204.148 160.819 -205.108 159.603 -206.804 159.603C-208.468 159.603 -209.428 160.899 -209.428 162.467ZM-198.436 166.771C-200.084 166.771 -201.06 165.843 -201.06 164.483C-201.06 163.059 -199.972 162.163 -198.164 162.019L-195.604 161.811V161.555C-195.604 160.035 -196.516 159.555 -197.652 159.555C-198.996 159.555 -199.796 160.163 -199.796 161.203H-200.804C-200.804 159.635 -199.524 158.627 -197.62 158.627C-195.828 158.627 -194.516 159.523 -194.516 161.571V166.579H-195.444L-195.588 165.219C-196.068 166.195 -197.124 166.771 -198.436 166.771ZM-198.18 165.875C-196.548 165.875 -195.604 164.739 -195.604 163.059V162.643L-197.892 162.819C-199.348 162.947 -199.94 163.587 -199.94 164.451C-199.94 165.395 -199.236 165.875 -198.18 165.875ZM-191.197 166.579H-192.301V158.835H-191.341L-191.181 160.179C-190.669 159.187 -189.645 158.627 -188.525 158.627C-186.397 158.627 -185.517 159.891 -185.517 161.843V166.579H-186.621V162.083C-186.621 160.275 -187.437 159.635 -188.717 159.635C-190.301 159.635 -191.197 160.787 -191.197 162.531V166.579ZM-181.541 166.579H-182.629V159.763H-184.181V158.835H-182.629V156.387H-181.541V158.835H-179.989V159.763H-181.541V166.579ZM-171.074 166.771C-173.33 166.771 -174.658 165.043 -174.658 162.723C-174.658 160.387 -173.33 158.627 -171.026 158.627C-169.746 158.627 -168.722 159.187 -168.178 160.307V154.915H-167.074V166.579H-168.034L-168.146 164.995C-168.69 166.195 -169.778 166.771 -171.074 166.771ZM-170.882 165.763C-169.186 165.763 -168.194 164.483 -168.194 162.691C-168.194 160.915 -169.186 159.619 -170.882 159.619C-172.562 159.619 -173.538 160.915 -173.538 162.691C-173.538 164.483 -172.562 165.763 -170.882 165.763ZM-160.722 158.739V159.731H-161.33C-162.754 159.731 -163.666 160.691 -163.666 162.163V166.579H-164.77V158.835H-163.73L-163.65 160.035C-163.346 159.203 -162.53 158.659 -161.442 158.659C-161.202 158.659 -160.994 158.675 -160.722 158.739ZM-156.303 166.771C-158.575 166.771 -160.095 165.139 -160.095 162.707C-160.095 160.291 -158.591 158.627 -156.383 158.627C-154.287 158.627 -152.863 160.115 -152.863 162.307V162.851H-159.023C-158.943 164.739 -157.951 165.827 -156.287 165.827C-155.023 165.827 -154.207 165.283 -153.919 164.259H-152.863C-153.279 165.891 -154.479 166.771 -156.303 166.771ZM-156.383 159.571C-157.839 159.571 -158.799 160.531 -158.991 162.051H-153.967C-153.967 160.563 -154.927 159.571 -156.383 159.571ZM-151.754 164.403H-150.698C-150.698 165.299 -150.026 165.859 -148.938 165.859C-147.738 165.859 -147.034 165.347 -147.034 164.515C-147.034 163.875 -147.354 163.507 -148.266 163.283L-149.594 162.947C-150.938 162.611 -151.594 161.907 -151.594 160.851C-151.594 159.491 -150.458 158.627 -148.794 158.627C-147.162 158.627 -146.106 159.523 -146.058 160.963H-147.13C-147.162 160.067 -147.786 159.539 -148.826 159.539C-149.914 159.539 -150.522 160.003 -150.522 160.835C-150.522 161.427 -150.106 161.843 -149.258 162.051L-147.93 162.387C-146.586 162.723 -145.978 163.347 -145.978 164.467C-145.978 165.859 -147.162 166.771 -148.922 166.771C-150.666 166.771 -151.754 165.843 -151.754 164.403ZM-144.816 164.403H-143.76C-143.76 165.299 -143.088 165.859 -142 165.859C-140.8 165.859 -140.096 165.347 -140.096 164.515C-140.096 163.875 -140.416 163.507 -141.328 163.283L-142.656 162.947C-144 162.611 -144.656 161.907 -144.656 160.851C-144.656 159.491 -143.52 158.627 -141.856 158.627C-140.224 158.627 -139.168 159.523 -139.12 160.963H-140.192C-140.224 160.067 -140.848 159.539 -141.888 159.539C-142.976 159.539 -143.584 160.003 -143.584 160.835C-143.584 161.427 -143.168 161.843 -142.32 162.051L-140.992 162.387C-139.648 162.723 -139.04 163.347 -139.04 164.467C-139.04 165.859 -140.224 166.771 -141.984 166.771C-143.728 166.771 -144.816 165.843 -144.816 164.403ZM-133.975 166.771C-136.247 166.771 -137.767 165.139 -137.767 162.707C-137.767 160.291 -136.263 158.627 -134.055 158.627C-131.959 158.627 -130.535 160.115 -130.535 162.307V162.851H-136.695C-136.615 164.739 -135.623 165.827 -133.959 165.827C-132.695 165.827 -131.879 165.283 -131.591 164.259H-130.535C-130.951 165.891 -132.151 166.771 -133.975 166.771ZM-134.055 159.571C-135.511 159.571 -136.471 160.531 -136.663 162.051H-131.639C-131.639 160.563 -132.599 159.571 -134.055 159.571ZM-129.426 164.403H-128.37C-128.37 165.299 -127.698 165.859 -126.61 165.859C-125.41 165.859 -124.706 165.347 -124.706 164.515C-124.706 163.875 -125.026 163.507 -125.938 163.283L-127.266 162.947C-128.61 162.611 -129.266 161.907 -129.266 160.851C-129.266 159.491 -128.13 158.627 -126.466 158.627C-124.834 158.627 -123.778 159.523 -123.73 160.963H-124.802C-124.834 160.067 -125.458 159.539 -126.498 159.539C-127.586 159.539 -128.194 160.003 -128.194 160.835C-128.194 161.427 -127.778 161.843 -126.93 162.051L-125.602 162.387C-124.258 162.723 -123.65 163.347 -123.65 164.467C-123.65 165.859 -124.834 166.771 -126.594 166.771C-128.338 166.771 -129.426 165.843 -129.426 164.403ZM-120.005 166.035C-120.005 167.027 -120.773 167.891 -121.765 168.035V167.443C-121.189 167.347 -120.773 166.931 -120.773 166.483C-120.869 166.547 -120.997 166.595 -121.189 166.595C-121.637 166.595 -122.021 166.275 -122.021 165.731C-122.021 165.171 -121.637 164.771 -121.077 164.771C-120.501 164.771 -120.005 165.235 -120.005 166.035ZM-110.084 166.771C-112.356 166.771 -113.876 165.139 -113.876 162.707C-113.876 160.291 -112.372 158.627 -110.164 158.627C-108.068 158.627 -106.644 160.115 -106.644 162.307V162.851H-112.804C-112.724 164.739 -111.732 165.827 -110.068 165.827C-108.804 165.827 -107.988 165.283 -107.7 164.259H-106.644C-107.06 165.891 -108.26 166.771 -110.084 166.771ZM-110.164 159.571C-111.62 159.571 -112.58 160.531 -112.772 162.051H-107.748C-107.748 160.563 -108.708 159.571 -110.164 159.571ZM-102.922 166.579L-106.09 158.835H-104.906L-102.906 163.827C-102.698 164.387 -102.49 164.915 -102.346 165.427C-102.202 164.899 -101.994 164.387 -101.77 163.827L-99.7384 158.835H-98.6024L-101.818 166.579H-102.922ZM-94.3969 166.771C-96.6689 166.771 -98.1889 165.139 -98.1889 162.707C-98.1889 160.291 -96.6849 158.627 -94.4769 158.627C-92.3809 158.627 -90.9569 160.115 -90.9569 162.307V162.851H-97.1169C-97.0369 164.739 -96.0449 165.827 -94.3809 165.827C-93.1169 165.827 -92.3009 165.283 -92.0129 164.259H-90.9569C-91.3729 165.891 -92.5729 166.771 -94.3969 166.771ZM-94.4769 159.571C-95.9329 159.571 -96.8929 160.531 -97.0849 162.051H-92.0609C-92.0609 160.563 -93.0209 159.571 -94.4769 159.571ZM-85.1437 158.739V159.731H-85.7517C-87.1757 159.731 -88.0877 160.691 -88.0877 162.163V166.579H-89.1917V158.835H-88.1517L-88.0717 160.035C-87.7677 159.203 -86.9517 158.659 -85.8637 158.659C-85.6237 158.659 -85.4157 158.675 -85.1437 158.739ZM-84.2257 169.955V169.043H-83.3777C-82.7057 169.043 -82.0337 168.995 -81.6497 167.955L-81.3137 167.043L-84.4497 158.835H-83.2817L-80.7857 165.587L-78.3377 158.835H-77.2017L-80.7537 168.355C-81.2017 169.571 -81.9537 170.067 -83.0577 170.067C-83.5217 170.067 -83.8737 170.035 -84.2257 169.955ZM-71.473 169.955V158.835H-70.513L-70.401 160.403C-69.857 159.203 -68.769 158.627 -67.473 158.627C-65.233 158.627 -63.889 160.339 -63.889 162.675C-63.889 165.011 -65.185 166.771 -67.473 166.771C-68.785 166.771 -69.825 166.211 -70.369 165.091V169.955H-71.473ZM-70.353 162.707C-70.353 164.483 -69.361 165.779 -67.665 165.779C-65.985 165.779 -65.009 164.483 -65.009 162.707C-65.009 160.915 -65.985 159.635 -67.665 159.635C-69.361 159.635 -70.353 160.915 -70.353 162.707ZM-61.5852 156.707C-62.0332 156.707 -62.4012 156.339 -62.4012 155.891C-62.4012 155.443 -62.0332 155.059 -61.5852 155.059C-61.1372 155.059 -60.7532 155.443 -60.7532 155.891C-60.7532 156.339 -61.1372 156.707 -61.5852 156.707ZM-62.1292 166.579V158.835H-61.0252V166.579H-62.1292ZM-55.475 166.771C-57.747 166.771 -59.267 165.139 -59.267 162.707C-59.267 160.291 -57.763 158.627 -55.555 158.627C-53.459 158.627 -52.035 160.115 -52.035 162.307V162.851H-58.195C-58.115 164.739 -57.123 165.827 -55.459 165.827C-54.195 165.827 -53.379 165.283 -53.091 164.259H-52.035C-52.451 165.891 -53.651 166.771 -55.475 166.771ZM-55.555 159.571C-57.011 159.571 -57.971 160.531 -58.163 162.051H-53.139C-53.139 160.563 -54.099 159.571 -55.555 159.571ZM-50.8139 162.723C-50.8139 160.291 -49.3259 158.627 -47.0699 158.627C-45.2779 158.627 -43.9659 159.667 -43.6619 161.267H-44.7659C-45.0539 160.195 -45.9819 159.603 -47.0539 159.603C-48.6219 159.603 -49.7259 160.803 -49.7259 162.707C-49.7259 164.547 -48.7019 165.779 -47.1339 165.779C-45.9819 165.779 -45.0539 165.139 -44.7499 164.147H-43.6299C-43.9979 165.731 -45.3739 166.771 -47.1339 166.771C-49.3259 166.771 -50.8139 165.155 -50.8139 162.723ZM-38.7094 166.771C-40.9814 166.771 -42.5014 165.139 -42.5014 162.707C-42.5014 160.291 -40.9974 158.627 -38.7894 158.627C-36.6934 158.627 -35.2694 160.115 -35.2694 162.307V162.851H-41.4294C-41.3494 164.739 -40.3574 165.827 -38.6934 165.827C-37.4294 165.827 -36.6134 165.283 -36.3254 164.259H-35.2694C-35.6854 165.891 -36.8854 166.771 -38.7094 166.771ZM-38.7894 159.571C-40.2454 159.571 -41.2054 160.531 -41.3974 162.051H-36.3734C-36.3734 160.563 -37.3334 159.571 -38.7894 159.571ZM-27.6747 155.123V166.579H-28.8267V155.123H-27.6747ZM-24.2012 155.907L-24.5052 159.091H-25.2253L-25.5452 155.907C-25.6092 155.347 -25.2092 155.091 -24.8572 155.091C-24.5212 155.091 -24.1372 155.347 -24.2012 155.907ZM-20.1567 166.579L-23.3247 158.835H-22.1407L-20.1407 163.827C-19.9327 164.387 -19.7247 164.915 -19.5807 165.427C-19.4367 164.899 -19.2287 164.387 -19.0047 163.827L-16.9727 158.835H-15.8367L-19.0527 166.579H-20.1567ZM-11.6312 166.771C-13.9032 166.771 -15.4232 165.139 -15.4232 162.707C-15.4232 160.291 -13.9193 158.627 -11.7112 158.627C-9.61525 158.627 -8.19125 160.115 -8.19125 162.307V162.851H-14.3512C-14.2712 164.739 -13.2792 165.827 -11.6152 165.827C-10.3512 165.827 -9.53525 165.283 -9.24725 164.259H-8.19125C-8.60725 165.891 -9.80725 166.771 -11.6312 166.771ZM-11.7112 159.571C-13.1672 159.571 -14.1272 160.531 -14.3192 162.051H-9.29525C-9.29525 160.563 -10.2552 159.571 -11.7112 159.571ZM-1.02863 166.579H-1.98862V154.915H-0.884625V160.339C-0.340625 159.203 0.715375 158.627 2.02738 158.627C4.28338 158.627 5.59538 160.387 5.59538 162.723C5.59538 165.043 4.25138 166.771 1.99538 166.771C0.699375 166.771 -0.372625 166.195 -0.916625 164.995L-1.02863 166.579ZM-0.868625 162.691C-0.868625 164.483 0.123375 165.763 1.81938 165.763C3.49938 165.763 4.47538 164.483 4.47538 162.691C4.47538 160.915 3.49938 159.619 1.81938 159.619C0.123375 159.619 -0.868625 160.915 -0.868625 162.691ZM6.81113 162.707C6.81113 160.339 8.47513 158.627 10.7471 158.627C13.0191 158.627 14.6831 160.339 14.6831 162.707C14.6831 165.059 13.0191 166.771 10.7471 166.771C8.47513 166.771 6.81113 165.059 6.81113 162.707ZM7.93113 162.691C7.93113 164.515 9.08313 165.779 10.7471 165.779C12.3951 165.779 13.5631 164.515 13.5631 162.691C13.5631 160.899 12.3951 159.619 10.7471 159.619C9.08313 159.619 7.93113 160.899 7.93113 162.691ZM21.7014 158.835H22.8054V166.579H21.8454L21.7014 165.267C21.2694 166.163 20.1974 166.771 18.9814 166.771C17.1574 166.771 16.1654 165.523 16.1654 163.635V158.819H17.2854V163.283C17.2854 165.123 18.1014 165.779 19.3334 165.779C20.8214 165.779 21.7014 164.787 21.7014 162.947V158.835ZM24.5771 162.483C24.5771 160.371 25.9371 158.627 28.2091 158.627C29.5531 158.627 30.5771 159.251 31.0731 160.387L31.1851 158.835H32.1451V166.339C32.1451 168.643 30.6731 170.147 28.4011 170.147C26.4171 170.147 25.0251 169.027 24.7211 167.155H25.8251C26.0651 168.403 27.0251 169.139 28.4171 169.139C30.0011 169.139 31.0571 168.067 31.0571 166.451V164.611C30.5291 165.699 29.4571 166.339 28.1291 166.339C25.9211 166.339 24.5771 164.595 24.5771 162.483ZM25.6811 162.467C25.6811 164.051 26.6571 165.347 28.2891 165.347C29.9691 165.347 30.9611 164.131 30.9611 162.467C30.9611 160.819 30.0011 159.603 28.3051 159.603C26.6411 159.603 25.6811 160.899 25.6811 162.467ZM35.5529 166.563H34.4489V154.915H35.5529V160.179C36.0489 159.251 36.9929 158.627 38.2889 158.627C40.3209 158.627 41.2329 159.891 41.2329 161.843V166.579H40.1289V162.083C40.1289 160.275 39.2809 159.635 38.0809 159.635C36.4169 159.635 35.5529 160.867 35.5529 162.355V166.563ZM45.2093 166.579H44.1213V159.763H42.5693V158.835H44.1213V156.387H45.2093V158.835H46.7613V159.763H45.2093V166.579ZM-285.744 188.563H-286.848V176.915H-285.744V182.179C-285.248 181.251 -284.304 180.627 -283.008 180.627C-280.976 180.627 -280.064 181.891 -280.064 183.843V188.579H-281.168V184.083C-281.168 182.275 -282.016 181.635 -283.216 181.635C-284.88 181.635 -285.744 182.867 -285.744 184.355V188.563ZM-275.64 188.771C-277.288 188.771 -278.264 187.843 -278.264 186.483C-278.264 185.059 -277.176 184.163 -275.368 184.019L-272.808 183.811V183.555C-272.808 182.035 -273.72 181.555 -274.856 181.555C-276.2 181.555 -277 182.163 -277 183.203H-278.008C-278.008 181.635 -276.728 180.627 -274.824 180.627C-273.032 180.627 -271.72 181.523 -271.72 183.571V188.579H-272.648L-272.792 187.219C-273.272 188.195 -274.328 188.771 -275.64 188.771ZM-275.384 187.875C-273.752 187.875 -272.808 186.739 -272.808 185.059V184.643L-275.096 184.819C-276.552 184.947 -277.144 185.587 -277.144 186.451C-277.144 187.395 -276.44 187.875 -275.384 187.875ZM-270.16 186.403H-269.104C-269.104 187.299 -268.432 187.859 -267.344 187.859C-266.144 187.859 -265.44 187.347 -265.44 186.515C-265.44 185.875 -265.76 185.507 -266.672 185.283L-268 184.947C-269.344 184.611 -270 183.907 -270 182.851C-270 181.491 -268.864 180.627 -267.2 180.627C-265.568 180.627 -264.512 181.523 -264.464 182.963H-265.536C-265.568 182.067 -266.192 181.539 -267.232 181.539C-268.32 181.539 -268.928 182.003 -268.928 182.835C-268.928 183.427 -268.512 183.843 -267.664 184.051L-266.336 184.387C-264.992 184.723 -264.384 185.347 -264.384 186.467C-264.384 187.859 -265.568 188.771 -267.328 188.771C-269.072 188.771 -270.16 187.843 -270.16 186.403ZM-254.881 188.771C-257.153 188.771 -258.673 187.139 -258.673 184.707C-258.673 182.291 -257.169 180.627 -254.961 180.627C-252.865 180.627 -251.441 182.115 -251.441 184.307V184.851H-257.601C-257.521 186.739 -256.529 187.827 -254.865 187.827C-253.601 187.827 -252.785 187.283 -252.497 186.259H-251.441C-251.857 187.891 -253.057 188.771 -254.881 188.771ZM-254.961 181.571C-256.417 181.571 -257.377 182.531 -257.569 184.051H-252.545C-252.545 182.563 -253.505 181.571 -254.961 181.571ZM-249.638 188.579H-250.934L-248.166 184.707L-250.918 180.835H-249.622L-247.43 183.939L-245.254 180.835H-243.974L-246.726 184.723L-243.99 188.579H-245.302L-247.478 185.475L-249.638 188.579ZM-243.47 184.723C-243.47 182.291 -241.982 180.627 -239.726 180.627C-237.934 180.627 -236.622 181.667 -236.318 183.267H-237.422C-237.71 182.195 -238.638 181.603 -239.71 181.603C-241.278 181.603 -242.382 182.803 -242.382 184.707C-242.382 186.547 -241.358 187.779 -239.79 187.779C-238.638 187.779 -237.71 187.139 -237.406 186.147H-236.286C-236.654 187.731 -238.03 188.771 -239.79 188.771C-241.982 188.771 -243.47 187.155 -243.47 184.723ZM-231.366 188.771C-233.638 188.771 -235.158 187.139 -235.158 184.707C-235.158 182.291 -233.654 180.627 -231.446 180.627C-229.35 180.627 -227.926 182.115 -227.926 184.307V184.851H-234.086C-234.006 186.739 -233.014 187.827 -231.35 187.827C-230.086 187.827 -229.27 187.283 -228.982 186.259H-227.926C-228.342 187.891 -229.542 188.771 -231.366 188.771ZM-231.446 181.571C-232.902 181.571 -233.862 182.531 -234.054 184.051H-229.03C-229.03 182.563 -229.99 181.571 -231.446 181.571ZM-222.912 188.771C-225.184 188.771 -226.704 187.139 -226.704 184.707C-226.704 182.291 -225.201 180.627 -222.992 180.627C-220.896 180.627 -219.472 182.115 -219.472 184.307V184.851H-225.632C-225.552 186.739 -224.56 187.827 -222.896 187.827C-221.632 187.827 -220.816 187.283 -220.528 186.259H-219.472C-219.888 187.891 -221.088 188.771 -222.912 188.771ZM-222.992 181.571C-224.448 181.571 -225.408 182.531 -225.6 184.051H-220.576C-220.576 182.563 -221.536 181.571 -222.992 181.571ZM-214.667 188.771C-216.923 188.771 -218.251 187.043 -218.251 184.723C-218.251 182.387 -216.923 180.627 -214.619 180.627C-213.339 180.627 -212.315 181.187 -211.771 182.307V176.915H-210.667V188.579H-211.627L-211.739 186.995C-212.283 188.195 -213.371 188.771 -214.667 188.771ZM-214.475 187.763C-212.779 187.763 -211.787 186.483 -211.787 184.691C-211.787 182.915 -212.779 181.619 -214.475 181.619C-216.155 181.619 -217.131 182.915 -217.131 184.691C-217.131 186.483 -216.155 187.763 -214.475 187.763ZM-205.116 188.771C-207.388 188.771 -208.908 187.139 -208.908 184.707C-208.908 182.291 -207.404 180.627 -205.196 180.627C-203.1 180.627 -201.676 182.115 -201.676 184.307V184.851H-207.836C-207.756 186.739 -206.764 187.827 -205.1 187.827C-203.836 187.827 -203.02 187.283 -202.732 186.259H-201.676C-202.092 187.891 -203.292 188.771 -205.116 188.771ZM-205.196 181.571C-206.652 181.571 -207.612 182.531 -207.804 184.051H-202.78C-202.78 182.563 -203.74 181.571 -205.196 181.571ZM-196.87 188.771C-199.126 188.771 -200.454 187.043 -200.454 184.723C-200.454 182.387 -199.126 180.627 -196.822 180.627C-195.542 180.627 -194.518 181.187 -193.974 182.307V176.915H-192.87V188.579H-193.83L-193.942 186.995C-194.486 188.195 -195.574 188.771 -196.87 188.771ZM-196.678 187.763C-194.982 187.763 -193.99 186.483 -193.99 184.691C-193.99 182.915 -194.982 181.619 -196.678 181.619C-198.358 181.619 -199.334 182.915 -199.334 184.691C-199.334 186.483 -198.358 187.763 -196.678 187.763ZM-185.025 188.579H-186.129V180.835H-185.169L-185.041 181.939C-184.657 181.123 -183.793 180.627 -182.705 180.627C-181.489 180.627 -180.577 181.267 -180.209 182.275C-179.857 181.267 -178.913 180.627 -177.665 180.627C-175.985 180.627 -174.881 181.715 -174.881 183.507V188.579H-175.953V183.731C-175.953 182.403 -176.689 181.619 -177.873 181.619C-179.169 181.619 -179.937 182.595 -179.937 183.795V188.579H-181.025V183.715C-181.025 182.403 -181.777 181.635 -182.945 181.635C-184.241 181.635 -185.025 182.595 -185.025 183.779V188.579ZM-173.601 191.955V191.043H-172.753C-172.081 191.043 -171.409 190.995 -171.025 189.955L-170.689 189.043L-173.825 180.835H-172.657L-170.161 187.587L-167.713 180.835H-166.577L-170.129 190.355C-170.577 191.571 -171.329 192.067 -172.433 192.067C-172.897 192.067 -173.249 192.035 -173.601 191.955ZM-157.6 188.771C-159.872 188.771 -161.392 187.139 -161.392 184.707C-161.392 182.291 -159.888 180.627 -157.68 180.627C-155.584 180.627 -154.16 182.115 -154.16 184.307V184.851H-160.32C-160.24 186.739 -159.248 187.827 -157.584 187.827C-156.32 187.827 -155.504 187.283 -155.216 186.259H-154.16C-154.576 187.891 -155.776 188.771 -157.6 188.771ZM-157.68 181.571C-159.136 181.571 -160.096 182.531 -160.288 184.051H-155.264C-155.264 182.563 -156.224 181.571 -157.68 181.571ZM-152.356 188.579H-153.652L-150.884 184.707L-153.636 180.835H-152.34L-150.148 183.939L-147.972 180.835H-146.692L-149.444 184.723L-146.708 188.579H-148.02L-150.196 185.475L-152.356 188.579ZM-145.379 191.955V180.835H-144.419L-144.307 182.403C-143.763 181.203 -142.675 180.627 -141.379 180.627C-139.139 180.627 -137.795 182.339 -137.795 184.675C-137.795 187.011 -139.091 188.771 -141.379 188.771C-142.691 188.771 -143.731 188.211 -144.275 187.091V191.955H-145.379ZM-144.259 184.707C-144.259 186.483 -143.267 187.779 -141.571 187.779C-139.891 187.779 -138.915 186.483 -138.915 184.707C-138.915 182.915 -139.891 181.635 -141.571 181.635C-143.267 181.635 -144.259 182.915 -144.259 184.707ZM-132.787 188.771C-135.059 188.771 -136.579 187.139 -136.579 184.707C-136.579 182.291 -135.076 180.627 -132.867 180.627C-130.771 180.627 -129.347 182.115 -129.347 184.307V184.851H-135.507C-135.427 186.739 -134.435 187.827 -132.771 187.827C-131.507 187.827 -130.691 187.283 -130.403 186.259H-129.347C-129.763 187.891 -130.963 188.771 -132.787 188.771ZM-132.867 181.571C-134.323 181.571 -135.283 182.531 -135.475 184.051H-130.451C-130.451 182.563 -131.411 181.571 -132.867 181.571ZM-128.126 184.723C-128.126 182.291 -126.638 180.627 -124.382 180.627C-122.59 180.627 -121.278 181.667 -120.974 183.267H-122.078C-122.366 182.195 -123.294 181.603 -124.366 181.603C-125.934 181.603 -127.038 182.803 -127.038 184.707C-127.038 186.547 -126.014 187.779 -124.446 187.779C-123.294 187.779 -122.366 187.139 -122.062 186.147H-120.942C-121.31 187.731 -122.686 188.771 -124.446 188.771C-126.638 188.771 -128.126 187.155 -128.126 184.723ZM-117.494 188.579H-118.582V181.763H-120.134V180.835H-118.582V178.387H-117.494V180.835H-115.942V181.763H-117.494V188.579ZM-112.405 188.771C-114.053 188.771 -115.029 187.843 -115.029 186.483C-115.029 185.059 -113.941 184.163 -112.133 184.019L-109.573 183.811V183.555C-109.573 182.035 -110.485 181.555 -111.621 181.555C-112.965 181.555 -113.765 182.163 -113.765 183.203H-114.773C-114.773 181.635 -113.493 180.627 -111.589 180.627C-109.797 180.627 -108.485 181.523 -108.485 183.571V188.579H-109.413L-109.557 187.219C-110.037 188.195 -111.093 188.771 -112.405 188.771ZM-112.149 187.875C-110.517 187.875 -109.573 186.739 -109.573 185.059V184.643L-111.861 184.819C-113.317 184.947 -113.909 185.587 -113.909 186.451C-113.909 187.395 -113.205 187.875 -112.149 187.875ZM-104.634 188.579H-105.722V181.763H-107.274V180.835H-105.722V178.387H-104.634V180.835H-103.082V181.763H-104.634V188.579ZM-101.101 178.707C-101.549 178.707 -101.917 178.339 -101.917 177.891C-101.917 177.443 -101.549 177.059 -101.101 177.059C-100.653 177.059 -100.269 177.443 -100.269 177.891C-100.269 178.339 -100.653 178.707 -101.101 178.707ZM-101.645 188.579V180.835H-100.541V188.579H-101.645ZM-98.7826 184.707C-98.7826 182.339 -97.1186 180.627 -94.8466 180.627C-92.5746 180.627 -90.9106 182.339 -90.9106 184.707C-90.9106 187.059 -92.5746 188.771 -94.8466 188.771C-97.1186 188.771 -98.7826 187.059 -98.7826 184.707ZM-97.6626 184.691C-97.6626 186.515 -96.5106 187.779 -94.8466 187.779C-93.1986 187.779 -92.0306 186.515 -92.0306 184.691C-92.0306 182.899 -93.1986 181.619 -94.8466 181.619C-96.5106 181.619 -97.6626 182.899 -97.6626 184.691ZM-88.0409 188.579H-89.1449V180.835H-88.1849L-88.0249 182.179C-87.5129 181.187 -86.4889 180.627 -85.3689 180.627C-83.2409 180.627 -82.3609 181.891 -82.3609 183.843V188.579H-83.4649V184.083C-83.4649 182.275 -84.2809 181.635 -85.5609 181.635C-87.1449 181.635 -88.0409 182.787 -88.0409 184.531V188.579ZM-80.9102 186.403H-79.8542C-79.8542 187.299 -79.1822 187.859 -78.0942 187.859C-76.8942 187.859 -76.1902 187.347 -76.1902 186.515C-76.1902 185.875 -76.5102 185.507 -77.4222 185.283L-78.7502 184.947C-80.0942 184.611 -80.7502 183.907 -80.7502 182.851C-80.7502 181.491 -79.6142 180.627 -77.9502 180.627C-76.3182 180.627 -75.2622 181.523 -75.2142 182.963H-76.2862C-76.3182 182.067 -76.9422 181.539 -77.9822 181.539C-79.0702 181.539 -79.6782 182.003 -79.6782 182.835C-79.6782 183.427 -79.2622 183.843 -78.4142 184.051L-77.0862 184.387C-75.7422 184.723 -75.1342 185.347 -75.1342 186.467C-75.1342 187.859 -76.3182 188.771 -78.0782 188.771C-79.8222 188.771 -80.9102 187.843 -80.9102 186.403ZM-72.4977 188.755C-73.0417 188.755 -73.5057 188.307 -73.5057 187.779C-73.5057 187.235 -73.0417 186.771 -72.4977 186.771C-71.9537 186.771 -71.4897 187.235 -71.4897 187.779C-71.4897 188.307 -71.9537 188.755 -72.4977 188.755ZM-68.806 178.147C-68.806 179.155 -69.542 180.003 -70.534 180.147V179.555C-69.974 179.443 -69.558 179.043 -69.558 178.595C-69.654 178.659 -69.798 178.691 -69.99 178.691C-70.406 178.691 -70.774 178.387 -70.774 177.843C-70.774 177.299 -70.39 176.899 -69.83 176.899C-69.286 176.899 -68.806 177.363 -68.806 178.147ZM-66.214 178.147C-66.214 179.155 -66.966 180.003 -67.942 180.147V179.555C-67.382 179.443 -66.966 179.043 -66.966 178.579C-67.062 178.643 -67.19 178.691 -67.398 178.691C-67.814 178.691 -68.198 178.387 -68.198 177.843C-68.198 177.299 -67.814 176.899 -67.254 176.899C-66.694 176.899 -66.214 177.363 -66.214 178.147Z" fill="black" fill-opacity="0.6"/>
</g>
<defs>
<filter id="filter0_f_24_825" x="-324" y="0" width="408" height="248" filterUnits="userSpaceOnUse" color-interpolation-filters="sRGB">
<feFlood flood-opacity="0" result="BackgroundImageFix"/>
<feBlend mode="normal" in="SourceGraphic" in2="BackgroundImageFix" result="shape"/>
<feGaussianBlur stdDeviation="2" result="effect1_foregroundBlur_24_825"/>
</filter>
</defs>
</svg>
